
<svg xmlns="http://www.w3.org/2000/svg">
    <symbol id="logo-crmplus" viewBox="0 0 100 115" fill="none">
        <path d="M99.9888 29.7549C99.9663 29.0692 99.6066 28.2823 98.8647 27.8664L51.1242 0.303507C50.4272 -0.101169 49.5729 -0.101169 48.876 0.303507L1.12427 27.8664C0.517262 28.2261 -0.0110648 28.9343 0.000176165 29.8111V84.9481C0.000176165 85.7575 0.427334 86.4994 1.12427 86.8928L48.876 114.467C49.4493 114.793 50.3148 114.928 51.1242 114.467L98.8759 86.9041C99.5728 86.4994 100 85.7575 100 84.9594V29.8223C100 29.7999 99.9888 29.7774 99.9888 29.7549ZM64.0401 62.8708C64.0176 62.8596 64.0064 62.8484 63.9839 62.8484C63.9502 62.8259 63.9052 62.8034 63.8715 62.7922C63.8377 62.7809 63.804 62.7697 63.7703 62.7472C63.7366 62.736 63.7029 62.7247 63.6691 62.7135C63.6354 62.7022 63.5904 62.691 63.5567 62.6797C63.523 62.6685 63.5005 62.6573 63.4668 62.6573C63.4218 62.646 63.3881 62.6348 63.3431 62.6348C63.3094 62.6348 63.2869 62.6235 63.2532 62.6235C63.2083 62.6235 63.1745 62.6123 63.1296 62.6123C63.0958 62.6123 63.0621 62.6123 63.0284 62.6011C62.9947 62.6011 62.9497 62.6011 62.916 62.6011C62.8823 62.6011 62.8373 62.6011 62.8036 62.6011C62.7699 62.6011 62.7361 62.6011 62.7136 62.6123C62.6687 62.6123 62.6237 62.6235 62.59 62.6235C62.5675 62.6235 62.5338 62.6348 62.5001 62.6348C62.4551 62.646 62.4101 62.6573 62.3764 62.6573C62.3427 62.6685 62.3202 62.6685 62.2865 62.6797C62.2528 62.691 62.2078 62.7022 62.1741 62.7135C62.1404 62.7247 62.1066 62.736 62.0729 62.7472C62.0392 62.7584 62.0055 62.7697 61.9717 62.7922C61.938 62.8146 61.8931 62.8259 61.8593 62.8484C61.8368 62.8596 61.8256 62.8708 61.8031 62.8708L43.0194 73.6847C41.1309 74.7863 39.0514 74.7413 36.657 73.5385C36.095 73.2575 35.5891 72.9428 35.1395 72.6393L51.304 59.24L95.5149 33.7342V80.9688L64.0401 62.8708ZM50.0001 4.84487L93.2667 29.8223L69.0423 43.8061C68.9299 43.705 68.795 43.6038 68.6601 43.5251L51.1242 33.3857C50.4272 32.9811 49.5729 32.9811 48.876 33.3857L31.1152 43.6375C31.059 43.6712 31.0141 43.705 30.9579 43.7387L6.74477 29.8223L50.0001 4.84487ZM4.49657 33.7117L40.8612 54.62C41.2096 54.8223 41.6031 54.9235 41.9853 54.9235C42.7609 54.9235 43.5253 54.5188 43.9412 53.7994C44.5595 52.7202 44.1885 51.3488 43.1094 50.7306L35.4655 46.3354L50.0001 37.9271L64.6021 46.3691L48.876 55.4406C48.7636 55.508 48.6624 55.5754 48.5612 55.6541L30.1822 70.8969C30.1597 70.9082 30.1485 70.9306 30.126 70.9419C30.1035 70.9531 30.0923 70.9756 30.0698 70.9868C30.0586 70.9981 30.0473 71.0093 30.0473 71.0206C30.0136 71.043 29.9911 71.0768 29.9574 71.1105C29.9349 71.133 29.9124 71.1667 29.89 71.1892C29.8675 71.2229 29.8338 71.2566 29.8113 71.2791C29.7888 71.3016 29.7663 71.3353 29.7551 71.369C29.7326 71.4028 29.7101 71.4365 29.6989 71.4702C29.6764 71.5039 29.6651 71.5264 29.6427 71.5601C29.6314 71.5938 29.6089 71.6276 29.5977 71.6613C29.5865 71.695 29.564 71.7287 29.5527 71.7625C29.5415 71.7962 29.5302 71.8299 29.519 71.8636C29.5078 71.8974 29.4965 71.9311 29.4853 71.976C29.474 72.0098 29.4628 72.0435 29.4628 72.0772C29.4516 72.1109 29.4403 72.1559 29.4403 72.1896C29.4291 72.2233 29.4291 72.2571 29.4178 72.2908C29.4178 72.3245 29.4066 72.3695 29.4066 72.4032C29.4066 72.4369 29.4066 72.4706 29.3954 72.5156C29.3954 72.5493 29.3954 72.5831 29.3954 72.628C29.3954 72.6617 29.3954 72.7067 29.3954 72.7404C29.3954 72.7742 29.3954 72.8079 29.3954 72.8416C29.3954 72.8753 29.4066 72.9203 29.4066 72.954C29.4066 72.9877 29.4178 73.0215 29.4178 73.0552C29.4291 73.0889 29.4291 73.1339 29.4403 73.1676C29.4516 73.2013 29.4516 73.235 29.4628 73.2688C29.474 73.3025 29.4853 73.3362 29.4965 73.3699C29.5078 73.4036 29.519 73.4374 29.5303 73.4711C29.5415 73.5048 29.5527 73.5385 29.5752 73.5723C29.5865 73.606 29.6089 73.6397 29.6202 73.6734C29.6314 73.7072 29.6539 73.7296 29.6764 73.7634C29.6989 73.7971 29.7213 73.8308 29.7438 73.8645C29.7663 73.8982 29.7888 73.9207 29.8 73.9545C29.8225 73.9882 29.845 74.0219 29.8787 74.0556C29.89 74.0669 29.89 74.0781 29.9012 74.0893C29.9349 74.1231 29.9574 74.1568 29.9911 74.1905C30.0698 74.2692 31.8571 76.1464 34.51 77.5066C36.4322 78.4958 38.3319 78.9792 40.1642 78.9792C41.9403 78.9792 43.6602 78.5183 45.2564 77.5853L62.9272 67.4122L93.3341 84.9144L81.8121 91.5578C81.7446 91.5016 62.2303 80.2157 62.2303 80.2157C61.1511 79.5974 59.7797 79.9571 59.1615 81.0363C58.5432 82.1154 58.9029 83.4868 59.9821 84.1051L77.3382 94.1433L65.9735 100.708C65.9286 100.686 46.2006 89.3434 46.2006 89.3434C45.1215 88.7251 43.7501 89.0961 43.1318 90.1752C42.5136 91.2543 42.8845 92.6257 43.9637 93.244L61.4771 103.305L50.0001 109.926L4.49657 83.6554V33.7117Z" fill="#226DB4"/>
    </symbol>
</svg>


